<?xml version="1.0" encoding="UTF-8" standalone="no"?>
<svg
   version="1.1"
   viewBox="-5.0 -10.0 110.0 135.0"
   id="svg2"
   sodipodi:docname="noun-spider-web-7673312.svg"
   inkscape:version="1.3.2 (091e20e, 2023-11-25)"
   xmlns:inkscape="http://www.inkscape.org/namespaces/inkscape"
   xmlns:sodipodi="http://sodipodi.sourceforge.net/DTD/sodipodi-0.dtd"
   xmlns="http://www.w3.org/2000/svg"
   xmlns:svg="http://www.w3.org/2000/svg">
  <defs
     id="defs2" />
  <sodipodi:namedview
     id="namedview2"
     pagecolor="#ffffff"
     bordercolor="#000000"
     borderopacity="0.25"
     inkscape:showpageshadow="2"
     inkscape:pageopacity="0.0"
     inkscape:pagecheckerboard="0"
     inkscape:deskcolor="#d1d1d1"
     inkscape:zoom="1.7481481"
     inkscape:cx="54.915254"
     inkscape:cy="67.5"
     inkscape:window-width="1312"
     inkscape:window-height="449"
     inkscape:window-x="37"
     inkscape:window-y="38"
     inkscape:window-maximized="0"
     inkscape:current-layer="svg2" />
  <path
     d="m61.801 22.258 12.652 0.17969-11.887 4.5078 0.070313-0.30469c0.003906-0.015625 0.007812-0.03125 0.007812-0.050781l0.054688-0.30859c0.003906-0.015625 0.003906-0.03125 0.007812-0.046875l0.03125-0.3125c0.003907-0.015625 0.003907-0.03125 0.003907-0.046875l0.015624-0.3125v-0.050781l-0.007812-0.3125v-0.050781l-0.027344-0.3125c0-0.015626 0-0.03125-0.003906-0.046876l-0.042969-0.3125c-0.003906-0.015624-0.007812-0.03125-0.011719-0.046874l-0.0625-0.30469c0-0.015625-0.003906-0.03125-0.011718-0.050781l-0.078125-0.29688c-0.007813-0.015625-0.011719-0.03125-0.015625-0.050782l-0.10156-0.29297c-0.003906-0.015625-0.011719-0.03125-0.015625-0.046875l-0.11719-0.28516c-0.007813-0.015624-0.015625-0.03125-0.023438-0.046874l-0.13281-0.28125c-0.007813-0.011719-0.015625-0.027344-0.023438-0.042969l-0.15234-0.26953c-0.007813-0.015626-0.015626-0.03125-0.027344-0.042969zm-8.1094-0.11328 5.9531 0.082031v0.003907l0.058594 0.046875 0.19141 0.17578 0.17969 0.1875 0.16797 0.20312 0.15234 0.20703 0.14062 0.21875 0.12891 0.23047 0.11328 0.23438 0.10156 0.24219 0.082032 0.24609 0.070312 0.25391 0.050781 0.25391 0.039063 0.25781 0.019531 0.26172 0.003906 0.26562-0.011719 0.26172-0.027343 0.26172-0.042969 0.25781-0.058594 0.25391-0.078125 0.25391-0.089843 0.24609-0.10547 0.23828-0.12109 0.23438-0.12891 0.21094-5.5508 2.1055 0.097656-0.26953c0.007812-0.015624 0.011718-0.03125 0.019531-0.050781l0.12891-0.44922c0.007813-0.015624 0.011719-0.035156 0.015625-0.050781l0.10156-0.45703c0.003906-0.015625 0.007812-0.035156 0.007812-0.050781l0.074219-0.46484c0-0.015625 0.003906-0.035156 0.003906-0.054687l0.042969-0.46484v-0.054688l0.011719-0.46875c0-0.015625 0-0.035156-0.003906-0.050781l-0.019532-0.46875c0-0.019531-0.003906-0.035156-0.003906-0.054687l-0.054688-0.46484c0-0.015625-0.003906-0.035156-0.007812-0.050782l-0.082031-0.46484c-0.003907-0.019531-0.007813-0.035157-0.011719-0.054688l-0.11719-0.45703c-0.003906-0.015625-0.007812-0.03125-0.011718-0.050781l-0.14453-0.44531c-0.007812-0.019531-0.011718-0.035156-0.019531-0.050781l-0.17578-0.4375c-0.003906-0.019531-0.011719-0.035156-0.019531-0.050781l-0.20312-0.42578c-0.007813-0.015624-0.015625-0.03125-0.027344-0.046874l-0.23047-0.41016c-0.007812-0.015625-0.019531-0.03125-0.027343-0.046875l-0.25781-0.39453c-0.011719-0.015625-0.019531-0.027344-0.03125-0.042969l-0.28516-0.375c-0.003907-0.007812-0.007813-0.011718-0.011719-0.015625zm20.551 2.0938-8.8398 8.2227-0.074219-0.25c-0.003906-0.011719-0.007813-0.027344-0.011719-0.039063l-0.11328-0.33203c-0.007813-0.015625-0.011719-0.027344-0.015625-0.042969l-0.13281-0.32422c-0.007813-0.011718-0.011719-0.027344-0.019532-0.039062l-0.14844-0.31641c-0.007813-0.011719-0.015625-0.027344-0.019531-0.039063l-0.16797-0.30859c-0.007813-0.011719-0.015625-0.023437-0.023438-0.039062l-0.18359-0.29688c-0.007813-0.011719-0.015626-0.023438-0.023438-0.035156l-0.20312-0.29297c-0.007813-0.011719-0.015625-0.023438-0.023437-0.035157l-0.21875-0.27734c-0.007813-0.011719-0.019532-0.023438-0.027344-0.035157l-0.23047-0.26172c-0.011719-0.011719-0.023437-0.023438-0.03125-0.035156l-0.24609-0.25c-0.011719-0.011719-0.023437-0.023438-0.03125-0.03125l-0.26172-0.23828c-0.011718-0.011718-0.023437-0.019531-0.03125-0.03125l-0.27344-0.22266c-0.011719-0.007812-0.023437-0.019531-0.035156-0.027344l-0.09375-0.066406zm-28.965-2.2148 6.0781 0.085937v0.003906l0.19531 0.14844 0.3125 0.27734 0.29297 0.29688 0.27344 0.31641 0.25391 0.33203 0.22656 0.34766 0.20703 0.36328 0.17969 0.37891 0.15234 0.38672 0.12891 0.39844 0.10156 0.40234 0.074218 0.41406 0.046875 0.41016 0.019531 0.41406-0.007812 0.41406-0.035156 0.41406-0.0625 0.41016-0.089844 0.40625-0.11719 0.39844-0.14453 0.39062-0.16797 0.37891-0.19141 0.36719-0.21875 0.35156-0.11328 0.16406-6.5703 2.4922 0.12109-0.32812c0.003906-0.011719 0.007813-0.027344 0.011719-0.039063l0.20312-0.66406c0.003906-0.015625 0.007812-0.027344 0.011719-0.042969l0.16406-0.67188c0.003907-0.015625 0.007813-0.027344 0.007813-0.042968l0.12891-0.67969c0.003906-0.015625 0.007812-0.03125 0.007812-0.042969l0.09375-0.6875c0-0.015625 0.003907-0.03125 0.003907-0.042969l0.054687-0.69141v-0.042968l0.019532-0.69531v-0.042969l-0.023438-0.69141v-0.046875l-0.058594-0.69141c0-0.011719-0.003906-0.027344-0.003906-0.042969l-0.097656-0.6875c0-0.011719-0.003906-0.027344-0.003906-0.042969l-0.13281-0.67969c-0.003906-0.015625-0.007813-0.027344-0.011719-0.042969l-0.16797-0.67188c-0.003907-0.015625-0.007813-0.03125-0.011719-0.042969l-0.20312-0.66406c-0.007813-0.011719-0.011719-0.027344-0.015625-0.042969l-0.24219-0.64844c-0.003906-0.015624-0.007812-0.027343-0.015625-0.042968l-0.27344-0.63672c-0.007813-0.011719-0.011719-0.023437-0.019531-0.039063l-0.30859-0.62109c-0.007813-0.011719-0.015625-0.023438-0.023438-0.039063zm-9.0898-0.12891 7.1953 0.10547 0.20313 0.3125 0.32031 0.5625 0.28906 0.58203 0.25781 0.59766 0.22656 0.60937 0.19141 0.62109 0.16016 0.63281 0.125 0.63672 0.089844 0.64453 0.050781 0.64844 0.019531 0.65234-0.015625 0.64844-0.050781 0.64844-0.085938 0.64062-0.12109 0.64062-0.15625 0.62891-0.1875 0.625-0.22266 0.60938-0.25391 0.59766-0.21875 0.44141v0.003906l-6.8516 2.5938 0.21875-0.3125c0.007812-0.011719 0.019531-0.027344 0.027344-0.042969l0.37891-0.62891c0.007812-0.011719 0.019531-0.03125 0.027344-0.046875l0.33594-0.64844c0.007813-0.015626 0.015625-0.03125 0.019531-0.050782l0.29297-0.66797c0.007813-0.019532 0.011719-0.035157 0.019531-0.050782l0.24609-0.69141c0.003906-0.015625 0.011719-0.03125 0.015625-0.050781l0.19922-0.70312c0.003906-0.019532 0.007812-0.035156 0.011718-0.054688l0.15234-0.71484c0.003906-0.015624 0.007813-0.035156 0.007813-0.050781l0.10547-0.72656c0.003906-0.015625 0.003906-0.035157 0.003906-0.054688l0.054687-0.72656c0.003907-0.019531 0.003907-0.039063 0.003907-0.054688l0.003906-0.73047c0.003906-0.019531 0-0.039062 0-0.054687l-0.042969-0.73828c0-0.019532-0.003906-0.039063-0.003906-0.054688l-0.09375-0.73438c-0.003907-0.019531-0.007813-0.039062-0.011719-0.054687l-0.14062-0.72656c-0.003906-0.019531-0.007813-0.035156-0.011719-0.054687l-0.19141-0.71484c-0.003906-0.015625-0.011719-0.035156-0.015625-0.050781l-0.24219-0.69922c-0.003907-0.019531-0.011719-0.035156-0.019532-0.050781l-0.28516-0.68359c-0.007812-0.015625-0.015625-0.035156-0.023438-0.050781l-0.32812-0.66016c-0.011719-0.015626-0.019532-0.03125-0.027344-0.046876l-0.375-0.64062c-0.011719-0.015626-0.019532-0.03125-0.03125-0.042969l-0.41797-0.61328c-0.007813-0.015626-0.019531-0.027344-0.03125-0.042969l-0.45703-0.58203c-0.011719-0.015626-0.023438-0.027344-0.035156-0.042969zm39.062 3.6094-5.2969 11.57-0.14062-0.21484c-0.007812-0.011719-0.015625-0.019531-0.023438-0.03125l-0.21875-0.29688c-0.007812-0.011719-0.019531-0.019531-0.027343-0.03125l-0.23438-0.28516c-0.007813-0.011719-0.015625-0.019532-0.023438-0.03125l-0.25-0.27344c-0.007812-0.007812-0.015625-0.019531-0.027344-0.027344l-0.25781-0.26172c-0.011719-0.011719-0.019531-0.019532-0.03125-0.027344l-0.27344-0.25c-0.007812-0.007812-0.019531-0.015625-0.03125-0.023438l-0.28516-0.23828c-0.011718-0.007812-0.023437-0.015625-0.03125-0.023437l-0.30078-0.21875c-0.011719-0.007813-0.019531-0.015625-0.03125-0.023438l-0.3125-0.20703c-0.007813-0.007813-0.019531-0.015625-0.03125-0.019531l-0.32031-0.19141c-0.011718-0.007813-0.023437-0.011719-0.035156-0.019532l-0.32812-0.17578c-0.011719-0.003906-0.023437-0.011719-0.035156-0.015625l-0.33984-0.15625c-0.011719-0.007812-0.023437-0.011719-0.035156-0.015625l-0.16016-0.066406zm-14.395 3.8125 0.25781 0.12891 0.26562 0.15234 0.25781 0.16797 0.25 0.18359 0.23828 0.19531 0.22656 0.20703 0.21484 0.21875 0.19922 0.23438 0.19141 0.24219 0.17578 0.25 0.16016 0.26172 0.14453 0.26953 0.13281 0.27344 0.11719 0.28516 0.097656 0.28906 0.085938 0.29297 0.066406 0.30078 0.050781 0.30078 0.023438 0.18359-5.0625 4.7031v0.003907l0.003906-0.011719c0-0.019531 0.003906-0.039063 0.003906-0.054688l0.011719-0.48438c0.003906-0.019531 0.003906-0.039062 0-0.058594l-0.015625-0.48047c-0.003906-0.019532-0.003906-0.039063-0.003906-0.058594l-0.054688-0.48047c0-0.015625-0.003906-0.035156-0.007812-0.054687l-0.085938-0.47656c-0.003906-0.015625-0.007812-0.035156-0.011719-0.054687l-0.11719-0.46875c-0.003906-0.015625-0.011719-0.035156-0.015625-0.054688l-0.15234-0.45703c-0.003906-0.019531-0.011718-0.035156-0.019531-0.054687l-0.18359-0.44531c-0.007812-0.019531-0.015625-0.035156-0.023437-0.050781l-0.21094-0.43359c-0.007812-0.015625-0.015625-0.03125-0.027344-0.046875l-0.24219-0.41797c-0.007813-0.015625-0.019531-0.03125-0.027344-0.046875l-0.26953-0.39844c-0.011719-0.015625-0.023438-0.027344-0.035156-0.042969l-0.29688-0.37891c-0.011719-0.015625-0.023438-0.027344-0.035157-0.042969l-0.32422-0.35547c-0.011719-0.015625-0.023438-0.027343-0.035156-0.039062l-0.34766-0.33594c-0.015625-0.011719-0.027343-0.023437-0.042969-0.035156l-0.36719-0.30859c-0.015625-0.011719-0.03125-0.023437-0.042969-0.035156l-0.39062-0.28125c-0.015625-0.011719-0.03125-0.023437-0.046875-0.03125l-0.14844-0.09375zm16.434-4.3945 0.48047 15.391-0.39453-0.26953c-0.011719-0.007813-0.023438-0.015625-0.035156-0.023438l-0.44531-0.26953c-0.011719-0.007812-0.023437-0.015625-0.035156-0.023438l-0.45703-0.24219c-0.015625-0.007813-0.027344-0.015625-0.039063-0.019531l-0.47266-0.22266c-0.011719-0.003907-0.023437-0.011719-0.039063-0.015626l-0.48047-0.19531c-0.011719-0.003906-0.027344-0.011719-0.039063-0.015625l-0.49219-0.16797c-0.011719-0.003906-0.027344-0.007812-0.039063-0.015625l-0.5-0.14062c-0.015625-0.003906-0.027343-0.007812-0.042969-0.011718l-0.50781-0.11719c-0.011719 0-0.027344-0.003906-0.042969-0.007812l-0.51172-0.089844c-0.015624 0-0.027343-0.003906-0.042968-0.003906l-0.51562-0.0625c-0.015625 0-0.03125-0.003907-0.042969-0.003907l-0.51953-0.03125c-0.015625-0.003906-0.03125-0.003906-0.042969-0.003906l-0.51953-0.003906h-0.011719-0.03125l-0.33984 0.015625zm-50.266-3.1562 6.7773 0.097656 0.52344 0.44141 0.49219 0.47656v0.003906l0.46094 0.50781 0.42578 0.53906 0.38672 0.5625 0.34766 0.59375 0.30859 0.61328 0.26172 0.63281 0.22266 0.64844 0.17969 0.66016 0.12891 0.67578 0.089844 0.67969 0.039063 0.68359-0.003907 0.67969-0.050781 0.67578-0.097656 0.66797-0.14062 0.66406-0.18359 0.65234-0.22656 0.64062-0.26953 0.62109-0.3125 0.60156-0.34766 0.58203-0.39062 0.55469-0.42188 0.53125-0.46094 0.5-0.50781 0.48438c-0.097656 0.09375-0.16797 0.20312-0.20703 0.32031h-0.003906l-7.0352 2.668 0.19531-0.28125c0.011719-0.015625 0.019531-0.03125 0.027344-0.042969l0.53516-0.89062c0.007813-0.015626 0.015625-0.03125 0.027344-0.046876l0.47266-0.92187c0.007813-0.015626 0.015625-0.035157 0.023437-0.050782l0.41016-0.94922c0.007812-0.019532 0.015625-0.035157 0.019531-0.050782l0.35156-0.97656c0.003907-0.015625 0.011719-0.035156 0.015626-0.050782l0.28516-0.99609c0.003906-0.019531 0.007812-0.035157 0.011718-0.054688l0.21875-1.0117c0.003907-0.019531 0.007813-0.035156 0.011719-0.050781l0.15234-1.0273c0.003906-0.019532 0.003906-0.035157 0.007813-0.054688l0.082031-1.0312c0.003906-0.019531 0.003906-0.035156 0.003906-0.054688l0.015625-1.043v-0.054688l-0.050781-1.043c0-0.015626-0.003907-0.035157-0.003907-0.050782l-0.12109-1.0391c0-0.015625-0.003907-0.035156-0.007813-0.050782l-0.1875-1.0273c-0.003906-0.019531-0.007812-0.035157-0.011718-0.050781l-0.25391-1.0156c-0.003906-0.015624-0.007812-0.03125-0.015625-0.050781l-0.32031-0.99219c-0.003906-0.015625-0.011719-0.035156-0.019532-0.050782l-0.38281-0.96875c-0.007812-0.015624-0.015625-0.035156-0.023438-0.050781l-0.44922-0.94141c-0.007813-0.015625-0.015625-0.03125-0.023438-0.046875l-0.50781-0.91016c-0.011719-0.015625-0.019532-0.03125-0.027344-0.046875zm26.316 10.398 0.19531 0.074219 0.38672 0.17188 0.375 0.19922 0.36328 0.22656 0.34375 0.24609 0.32422 0.27344 0.30469 0.29688 0.28516 0.31641 0.26172 0.33203 0.23828 0.35156 0.21484 0.36719 0.1875 0.37891 0.16016 0.39844 0.13672 0.40625 0.10547 0.41406 0.074219 0.41797 0.046875 0.42578 0.015625 0.42578-0.011719 0.42969-0.042968 0.42188-0.074219 0.42188-0.10156 0.41406-0.12891 0.40625-0.17188 0.42578c-0.003906 0.011719-0.011719 0.027344-0.015625 0.042969h-0.003906l-5.207 4.8438v-0.60938-0.042969l-0.042968-0.71484c0-0.015625-0.003906-0.03125-0.003906-0.046875l-0.082032-0.71094c-0.003906-0.015625-0.003906-0.03125-0.007812-0.046875l-0.125-0.70312c0-0.015625-0.003906-0.03125-0.007813-0.046875l-0.16406-0.69531c-0.003907-0.015625-0.007813-0.03125-0.011719-0.046875l-0.20312-0.68359c-0.003906-0.015624-0.007813-0.03125-0.015625-0.042968l-0.24219-0.67578c-0.003906-0.015624-0.007812-0.027343-0.015624-0.042968l-0.28125-0.65625c-0.003907-0.015625-0.011719-0.03125-0.019532-0.042969l-0.31641-0.64062c-0.007812-0.011719-0.015625-0.027344-0.023438-0.039062l-0.35156-0.62109c-0.007812-0.011719-0.015625-0.027344-0.023438-0.039063l-0.39062-0.59766c-0.007813-0.015625-0.015626-0.027344-0.023438-0.039063l-0.42188-0.57422c-0.011719-0.011719-0.019531-0.027344-0.03125-0.039063l-0.45312-0.54688c-0.007812-0.011718-0.019531-0.023437-0.03125-0.035156l-0.48438-0.52344c-0.011719-0.011718-0.019531-0.023437-0.03125-0.035156l-0.51562-0.49219c-0.011719-0.011719-0.023438-0.023438-0.035156-0.03125l-0.53906-0.46484c-0.011719-0.011719-0.027343-0.019531-0.039062-0.03125l-0.035157-0.027344zm11.492 3.0273 0.25 0.074219 0.3125 0.10938 0.30859 0.125 0.30078 0.13672 0.29297 0.15625 0.28516 0.17188 0.27344 0.17969 0.26953 0.19922 0.25391 0.21094 0.24219 0.21875 0.23438 0.23437 0.22266 0.24219 0.20703 0.25391 0.19531 0.26562 0.18359 0.27344 0.16797 0.28516 0.15234 0.28906 0.13281 0.27734-3.0469 6.6523-0.007812-0.027344c-0.007812-0.019531-0.011719-0.035156-0.019531-0.050781l-0.18359-0.44922c-0.003906-0.015625-0.011719-0.03125-0.019531-0.046875l-0.21094-0.4375c-0.007812-0.015625-0.015625-0.03125-0.027344-0.046875l-0.23828-0.42188c-0.007812-0.015625-0.015625-0.03125-0.027343-0.042968l-0.26563-0.40625c-0.011718-0.015626-0.019531-0.027344-0.03125-0.042969l-0.29297-0.38672c-0.007813-0.015625-0.019532-0.027344-0.03125-0.039062l-0.31641-0.36719c-0.011719-0.015625-0.023438-0.027344-0.035157-0.039062l-0.34375-0.34375c-0.011719-0.015626-0.023437-0.027344-0.035156-0.039063l-0.36328-0.32031c-0.011719-0.011718-0.027344-0.023437-0.039063-0.035156l-0.38672-0.30078c-0.015624-0.007813-0.027343-0.019531-0.042968-0.03125l-0.40234-0.27344c-0.015625-0.007813-0.03125-0.019532-0.046875-0.027344l-0.42188-0.24609c-0.015625-0.007812-0.03125-0.015625-0.046875-0.023438l-0.43359-0.21875c-0.015625-0.007812-0.03125-0.015624-0.050781-0.023437l-0.44922-0.1875c-0.015625-0.007813-0.03125-0.015625-0.046875-0.019531l-0.46484-0.16016c-0.015624-0.003907-0.03125-0.011719-0.050781-0.015626l-0.46875-0.12891c-0.015625-0.003906-0.035156-0.007812-0.050781-0.011718l-0.48047-0.097657c-0.015625-0.003906-0.035156-0.003906-0.050781-0.007812l-0.24219-0.03125zm6.6836 4.7734 0.47656 0.007812 0.47656 0.027344v0.003906l0.47266 0.054688 0.46875 0.082031 0.46875 0.10547 0.45703 0.13281 0.45312 0.15234 0.4375 0.17969 0.43359 0.20312 0.41797 0.22266 0.40625 0.25 0.39453 0.26562 0.37891 0.28906 0.35938 0.30859 0.21875 0.20703v0.003907l0.17969 5.668-0.34766-0.29297c-0.011719-0.011719-0.027344-0.023438-0.039063-0.03125l-0.48438-0.35547c-0.011719-0.011719-0.027343-0.023438-0.039062-0.03125l-0.50391-0.32422c-0.015624-0.007812-0.03125-0.019531-0.042968-0.027344l-0.52344-0.28906c-0.015625-0.011719-0.03125-0.019532-0.046875-0.023438l-0.53906-0.25781c-0.015625-0.007813-0.03125-0.015625-0.046875-0.023438l-0.55469-0.22266c-0.015625-0.003906-0.03125-0.011719-0.050781-0.015625l-0.56641-0.1875c-0.015625-0.007813-0.03125-0.011719-0.050781-0.015625l-0.57813-0.14844c-0.015624-0.007812-0.03125-0.007812-0.050781-0.011718l-0.58594-0.11328c-0.015625-0.003906-0.035156-0.007812-0.050782-0.007812l-0.59375-0.078125c-0.015624 0-0.035156-0.003906-0.050781-0.003906l-0.59766-0.039063h-0.050781-0.59766-0.050782l-0.59766 0.039063c-0.019531 0-0.035156 0.003906-0.050781 0.003906l-0.59375 0.078125c-0.019531 0.003906-0.035157 0.003906-0.050781 0.007812l-0.58984 0.11328-0.046875 0.011718-0.58203 0.15234c-0.015626 0.003906-0.03125 0.007813-0.046876 0.015625l-0.57031 0.1875c-0.015625 0.003907-0.03125 0.007813-0.046875 0.015625l-0.33984 0.13672 2.8984-6.3281 0.20703-0.03125 0.47656-0.046875v0.003906zm-26.684-4.5742 0.3125 0.21094 0.53125 0.40234 0.50391 0.43359 0.48437 0.46484 0.45313 0.48828 0.42578 0.51172 0.39453 0.53906 0.36328 0.5625 0.32812 0.57812 0.29688 0.59766 0.26172 0.61719 0.22656 0.62891 0.19141 0.64062 0.15234 0.65234 0.11719 0.65625 0.074219 0.66406 0.039062 0.66797 0.003907 0.67188-0.039063 0.66797-0.082031 0.6875c-0.003906 0.058594-0.003906 0.11328 0 0.17188h-0.003906l-5.3359 4.9609 0.023438-0.32422c0.003906-0.019531 0.003906-0.035157 0.003906-0.050781l0.011718-0.8125v-0.050782l-0.039062-0.8125c0-0.015625 0-0.03125-0.003906-0.050781l-0.085938-0.80859c-0.003906-0.015625-0.003906-0.03125-0.007812-0.046875l-0.14062-0.80078c0-0.019531-0.003907-0.035156-0.007813-0.050781l-0.19141-0.78906c-0.003906-0.015625-0.007812-0.035156-0.011719-0.050781l-0.23828-0.77734c-0.003906-0.015625-0.011719-0.03125-0.015625-0.046875l-0.28516-0.76172c-0.007813-0.015624-0.015625-0.03125-0.019531-0.042968l-0.33594-0.74219c-0.003906-0.015625-0.011719-0.03125-0.019531-0.046875l-0.37891-0.71875c-0.007812-0.015625-0.015624-0.03125-0.027343-0.042969l-0.42578-0.69922c-0.007813-0.015625-0.019532-0.03125-0.027344-0.042969l-0.46875-0.67188c-0.011719-0.015625-0.019532-0.027344-0.03125-0.042969l-0.51172-0.64062c-0.011719-0.011718-0.023437-0.023437-0.035156-0.039062l-0.55078-0.60547c-0.011719-0.011719-0.023438-0.023437-0.035157-0.035156l-0.58594-0.57422c-0.011719-0.011719-0.027344-0.019531-0.039063-0.03125l-0.62109-0.53516c-0.015626-0.011719-0.027344-0.019532-0.042969-0.03125l-0.65234-0.49219c-0.015625-0.011718-0.027344-0.019531-0.042969-0.027344l-0.6875-0.45312c-0.011718-0.007813-0.027344-0.015626-0.042968-0.023438l-0.71094-0.40625c-0.015625-0.011719-0.03125-0.019531-0.042969-0.027344l-0.4375-0.21094zm13.312 6.3438h0.4375v0.003906l0.43359 0.027344 0.42969 0.058594 0.42578 0.085937 0.42188 0.11328 0.41016 0.14453 0.39844 0.16797 0.39063 0.19141 0.375 0.22266 0.35937 0.24219 0.34375 0.26953 0.32422 0.28516 0.30078 0.30859 0.28125 0.32422 0.26172 0.34375 0.23828 0.36328 0.21094 0.375 0.19141 0.38672 0.16016 0.40234 0.13672 0.41016 0.10938 0.41797 0.082032 0.42188 0.054687 0.45703c0.007813 0.066407 0.027344 0.13281 0.050781 0.19531h-0.003906l-2.7266 5.9531v0.003906l-0.066407-0.1875c-0.007812-0.015625-0.011719-0.03125-0.019531-0.046875l-0.27734-0.63672-0.023437-0.046874-0.31641-0.61719c-0.007812-0.015625-0.015624-0.03125-0.027343-0.046875l-0.35547-0.59766c-0.007812-0.011719-0.015625-0.027344-0.027344-0.042969l-0.39062-0.57422c-0.011719-0.011719-0.019531-0.027343-0.03125-0.039062l-0.42969-0.54688c-0.007813-0.015625-0.019532-0.027344-0.03125-0.039063l-0.46094-0.52344c-0.011718-0.011719-0.023437-0.023438-0.035156-0.035156l-0.49609-0.49219c-0.011718-0.011719-0.023437-0.023438-0.035156-0.03125l-0.52344-0.46094c-0.015624-0.011718-0.027343-0.019531-0.039062-0.03125l-0.55078-0.42187c-0.015625-0.011719-0.027344-0.023438-0.042969-0.03125l-0.57422-0.38672c-0.015625-0.011719-0.027343-0.019531-0.042969-0.027344l-0.60156-0.35156c-0.011719-0.007812-0.027344-0.015624-0.042969-0.023437l-0.62109-0.3125c-0.011719-0.007813-0.027344-0.015625-0.042969-0.023437l-0.64062-0.27344c-0.015625-0.003906-0.03125-0.011719-0.046875-0.015625l-0.65234-0.23438c-0.015625-0.003906-0.03125-0.011719-0.050781-0.015625l-0.66406-0.19141c-0.019531-0.003907-0.035156-0.007813-0.050781-0.011719l-0.67969-0.14844c-0.015624-0.003906-0.03125-0.007812-0.046874-0.007812l-0.48828-0.074219 4.9492-4.6055v0.003907zm13.449 5.5039 0.54688 0.035157 0.54297 0.070312 0.53906 0.10156v0.003907l0.52734 0.13672 0.51953 0.16797 0.50781 0.20703 0.49609 0.23437 0.47656 0.26563 0.45703 0.29687 0.44141 0.32422 0.41797 0.35156 0.39453 0.37891 0.37109 0.40625 0.25781 0.31641 0.26562 8.4297-0.058594-0.050782c-0.011719-0.007812-0.023437-0.019531-0.035156-0.027343l-0.71484-0.57031c-0.011719-0.007812-0.023437-0.015625-0.035156-0.027344l-0.74609-0.52734c-0.011719-0.011719-0.023437-0.019531-0.035156-0.027344l-0.77734-0.48828c-0.011719-0.007813-0.023437-0.015625-0.035156-0.023438l-0.80078-0.44531c-0.011719-0.007813-0.023438-0.015625-0.035157-0.019532l-0.82422-0.40625c-0.011718-0.007812-0.023437-0.011718-0.039062-0.019531l-0.83984-0.35938c-0.015625-0.007812-0.027344-0.011718-0.039062-0.015625l-0.86328-0.31641c-0.011718-0.003906-0.027343-0.007813-0.039062-0.011719l-0.875-0.26953c-0.015625-0.003906-0.027344-0.007813-0.042969-0.011719l-0.89453-0.22266c-0.011719-0.003906-0.027344-0.007812-0.039062-0.011719l-0.90625-0.17578c-0.015626 0-0.027344-0.003906-0.042969-0.003906l-0.91016-0.12891c-0.015624 0-0.03125-0.003907-0.042968-0.003907l-0.91797-0.078125h-0.042969l-0.92188-0.03125h-0.023437-0.019532l-0.92187 0.023438h-0.042969l-0.91797 0.074218c-0.015625 0-0.027344 0-0.042969 0.003907l-0.91406 0.11719c-0.011719 0.003906-0.027344 0.003906-0.042969 0.007813l-0.35547 0.066406 2.8242-6.1641h-0.003906c0.023437-0.011718 0.050781-0.027343 0.074218-0.042968l0.48047-0.3125 0.47656-0.26562 0.49609-0.23828 0.50781-0.20313 0.51953-0.17187 0.52734-0.13672 0.53906-0.10547 0.54297-0.070312v0.003906l0.54297-0.039063v0.003907zm-37.043-7.9492 0.52344 0.17578v0.003906l0.71094 0.29297 0.6875 0.33594 0.66797 0.38281 0.64453 0.42188 0.61328 0.46094 0.58594 0.5 0.55078 0.53516 0.51953 0.57031 0.47656 0.60156 0.44141 0.62891 0.40234 0.65625 0.35547 0.67578 0.3125 0.69531 0.26953 0.71094 0.22266 0.73047 0.17578 0.74219 0.12891 0.75 0.085937 0.75781 0.035157 0.76172-0.011719 0.76172-0.058594 0.76172-0.10938 0.75391-0.13672 0.66406-7.0703 6.5742 0.082031-0.64062c0.003906-0.019532 0.003906-0.035157 0.007812-0.050782l0.066407-1.0234c0.003906-0.015625 0.003906-0.035157 0.003906-0.050781l0.003906-1.0234v-0.050781l-0.058593-1.0234c-0.003907-0.015625-0.003907-0.035156-0.003907-0.050781l-0.125-1.0156c-0.003906-0.019531-0.003906-0.035156-0.007812-0.050781l-0.1875-1.0078c-0.003907-0.015625-0.007813-0.03125-0.011719-0.050781l-0.25-0.99219c-0.003906-0.015624-0.011719-0.03125-0.015625-0.046874l-0.3125-0.97656c-0.003906-0.015625-0.011719-0.03125-0.015625-0.046875l-0.375-0.95312c-0.007812-0.015625-0.011719-0.03125-0.019531-0.046875l-0.43359-0.92969c-0.007813-0.015624-0.015625-0.03125-0.023437-0.042968l-0.49219-0.90234c-0.007812-0.011719-0.015625-0.027344-0.023438-0.042969l-0.54687-0.86328c-0.011719-0.015625-0.019532-0.03125-0.03125-0.042969l-0.60156-0.83203c-0.007813-0.011719-0.019531-0.027344-0.027344-0.039062l-0.65234-0.78906c-0.011719-0.015625-0.023438-0.027344-0.035157-0.039063l-0.69922-0.74609c-0.011718-0.015625-0.023437-0.027344-0.035156-0.039063l-0.74609-0.69922c-0.015624-0.011719-0.027343-0.023438-0.039062-0.035157l-0.78906-0.65234c-0.011719-0.011719-0.027344-0.023438-0.039063-0.03125l-0.82812-0.60156c-0.015625-0.011719-0.03125-0.019531-0.042969-0.03125l-0.86719-0.54688c-0.011719-0.007812-0.027344-0.019531-0.042969-0.027344l-0.89844-0.49219c-0.011719-0.007813-0.027344-0.015625-0.042969-0.023438l-0.32422-0.14844zm16.66 8.5664 0.54297 0.015625 0.64062 0.054687v0.003907l0.63672 0.09375 0.62891 0.14062 0.62109 0.17578 0.60547 0.21484 0.58984 0.25391 0.57422 0.28906 0.55859 0.32422v0.003906l0.53125 0.35938 0.51172 0.39062 0.48438 0.42578 0.46094 0.45313 0.42578 0.48437 0.39844 0.50781 0.36328 0.53125 0.33203 0.55469 0.29297 0.57422 0.25781 0.58984 0.22266 0.60938 0.17969 0.61719 0.14063 0.62891-3.3594 7.3398-0.22266-0.57813c-0.007812-0.015624-0.015625-0.03125-0.019531-0.046874l-0.38281-0.82422c-0.007812-0.015625-0.015624-0.03125-0.023437-0.042969l-0.43359-0.80469c-0.007812-0.011718-0.015625-0.027343-0.023437-0.042968l-0.48047-0.76953c-0.007813-0.015624-0.019531-0.03125-0.027344-0.042968l-0.52734-0.74219c-0.007813-0.011718-0.019532-0.027344-0.03125-0.039062l-0.57031-0.71094c-0.011719-0.011718-0.019531-0.023437-0.03125-0.035156l-0.61719-0.67188c-0.007813-0.011719-0.019532-0.023437-0.03125-0.035156l-0.65625-0.63281c-0.011719-0.011718-0.023438-0.023437-0.035157-0.035156l-0.69141-0.58984c-0.015625-0.011718-0.027344-0.023437-0.039063-0.03125l-0.73047-0.55078c-0.015625-0.011719-0.027344-0.019531-0.042969-0.027344l-0.76172-0.50391c-0.015625-0.011719-0.027344-0.019531-0.042968-0.027344l-0.79297-0.45703c-0.015625-0.007812-0.03125-0.015625-0.042969-0.023438l-0.82031-0.40625c-0.015626-0.007812-0.03125-0.011718-0.046876-0.019531l-0.84375-0.35547c-0.015624-0.003906-0.03125-0.011718-0.046874-0.015624l-0.86328-0.30469c-0.015625-0.003906-0.03125-0.007812-0.046875-0.015625l-0.87891-0.24609c-0.015625-0.003906-0.03125-0.007812-0.050781-0.011719l-0.89062-0.19141c-0.019531-0.003906-0.035157-0.007812-0.050781-0.011718l-0.90625-0.13672c-0.003907 0-0.007813 0-0.015626-0.003907l-0.003906 0.003907zm15.562 8.4492 0.87891 0.027343 0.875 0.074219 0.86719 0.11719v0.003906l0.86328 0.16406 0.85156 0.21484 0.83594 0.25391 0.81641 0.30078 0.80469 0.34375 0.78516 0.38672 0.75781 0.42578 0.73828 0.46875 0.71484 0.50781 0.68359 0.54297 0.65234 0.57812 0.52734 0.51562 0.22656 7.2695-0.14453-0.14844c-0.011718-0.015624-0.023437-0.027343-0.035156-0.035156l-0.80078-0.74219c-0.015625-0.011719-0.027344-0.019531-0.039063-0.03125l-0.84766-0.6875c-0.011718-0.011719-0.027344-0.019531-0.039062-0.03125l-0.89062-0.63281c-0.011719-0.007812-0.027344-0.019531-0.039063-0.027344l-0.92578-0.57422c-0.015625-0.011719-0.03125-0.019532-0.046875-0.027344l-0.96094-0.51562c-0.011718-0.007813-0.027343-0.015625-0.042968-0.023437l-0.99219-0.45703c-0.015625-0.003906-0.03125-0.011718-0.046875-0.019531l-1.0156-0.39062c-0.015625-0.007812-0.03125-0.011719-0.046875-0.015625l-1.043-0.32812c-0.015624-0.003906-0.03125-0.011719-0.046874-0.015625l-1.0586-0.26172c-0.015625-0.003906-0.03125-0.007812-0.050782-0.007812l-1.0586-0.19531c-0.019531-0.003906-0.035157-0.003906-0.050781-0.007812l-1.0703-0.125c-0.019531-0.003907-0.035156-0.003907-0.050781-0.007813l-1.0781-0.058594h-0.046875-0.003906l-1.0781 0.003907c-0.015624 0-0.035156 0.003906-0.050781 0.003906l-1.0781 0.074219c-0.015625 0-0.03125 0-0.046875 0.003906l-1.0703 0.14062c-0.015625 0-0.035157 0.003906-0.050781 0.007813l-1.0586 0.20703c-0.015625 0-0.03125 0.003906-0.046875 0.007812l-1.0469 0.27344c-0.015625 0.003906-0.03125 0.007812-0.046875 0.015625l-1.0273 0.33594c-0.015625 0.003907-0.03125 0.007813-0.046875 0.015625l-0.29688 0.11719 3.4492-7.5273 0.60156-0.14453 0.86328-0.16016 0.87109-0.11719v0.003906l0.875-0.070312zm-23.266-1.2891 0.5625 0.015625 0.86328 0.078125 0.85547 0.12891 0.84375 0.18359 0.83203 0.23438 0.81641 0.28516 0.80078 0.33594 0.77344 0.38281 0.75 0.42969 0.72266 0.47656v0.003906l0.6875 0.51953 0.65625 0.55859 0.61719 0.59766 0.58203 0.63672 0.54297 0.66797 0.49609 0.70312 0.45312 0.73047 0.41016 0.75781 0.36328 0.78125 0.3125 0.80078 0.26172 0.82031 0.13672 0.53906-3.2852 7.168-0.28516-0.64453c-0.007813-0.015625-0.015625-0.027343-0.023438-0.042969l-0.50391-0.97266c-0.007812-0.015625-0.015625-0.03125-0.023438-0.042968l-0.56641-0.94141c-0.007812-0.015625-0.015625-0.03125-0.027344-0.042969l-0.61719-0.90625c-0.011719-0.011718-0.019531-0.027343-0.03125-0.039062l-0.67188-0.86719c-0.011719-0.011718-0.023438-0.023437-0.03125-0.039062l-0.72656-0.82422c-0.011719-0.011719-0.019532-0.023437-0.03125-0.035156l-0.77344-0.77734c-0.011719-0.011719-0.023438-0.023437-0.039062-0.035156l-0.81641-0.73047c-0.011719-0.011718-0.027343-0.023437-0.039062-0.03125l-0.85938-0.67969c-0.015625-0.011719-0.027344-0.019531-0.039063-0.03125l-0.90234-0.625c-0.015626-0.011719-0.027344-0.019531-0.042969-0.027344l-0.93359-0.57031c-0.011719-0.007812-0.027344-0.015624-0.039063-0.023437l-0.96875-0.51172c-0.015624-0.007812-0.027343-0.015625-0.042968-0.023437l-0.99609-0.45312c-0.015625-0.007813-0.027344-0.011719-0.042969-0.019532l-1.0234-0.39062c-0.011719-0.007813-0.027344-0.011719-0.042969-0.015626l-1.043-0.33203c-0.015625-0.003906-0.03125-0.007812-0.046875-0.011719l-1.0625-0.26953c-0.015625-0.003906-0.03125-0.007812-0.046875-0.007812l-1.0742-0.20312c-0.015626-0.003906-0.03125-0.007813-0.046876-0.007813l-1.0859-0.14062c-0.015625 0-0.03125-0.003906-0.046875-0.003906l-1.0938-0.070312c-0.015625-0.003907-0.03125-0.003907-0.046875-0.003907h-0.24609zm22.656 9.7266 1.0273 0.058593 1.0234 0.12109 1.0117 0.18359 1.0117 0.25 0.98828 0.3125 0.97266 0.375 0.94531 0.43359 0.91406 0.49219 0.88281 0.55078 0.84766 0.60156 0.80859 0.65625 0.76562 0.70312 0.71875 0.75391 0.64844 0.76953 0.26562 8.4844v0.003907l-0.98438-0.96875-0.035157-0.035157-1.0664-0.92188c-0.011718-0.011718-0.027344-0.023437-0.039062-0.03125l-1.1211-0.85938c-0.011719-0.007812-0.027344-0.019531-0.039062-0.027343l-1.1719-0.78516c-0.015624-0.007812-0.027343-0.019531-0.042968-0.027343l-1.2188-0.71094c-0.011719-0.007812-0.027344-0.015625-0.042969-0.023438l-1.2578-0.63672c-0.015624-0.007813-0.03125-0.011719-0.046874-0.019532l-1.293-0.55469c-0.015625-0.007813-0.03125-0.015625-0.046875-0.019531l-1.3281-0.47266c-0.015625-0.007813-0.03125-0.011719-0.046875-0.015626l-1.3555-0.39453c-0.015625-0.003906-0.03125-0.007812-0.050781-0.011719l-1.375-0.30859c-0.019532-0.003907-0.035156-0.003907-0.050782-0.007813l-1.3945-0.22266c-0.015625 0-0.035156-0.003906-0.050781-0.003906l-1.4062-0.13672c-0.015625 0-0.03125-0.003906-0.046875-0.003906l-1.4141-0.046875h-0.027343-0.023438l-1.4102 0.039062c-0.015625 0-0.035156 0.003906-0.050781 0.003906l-1.4062 0.12891c-0.015625 0-0.03125 0-0.050782 0.003906l-1.3945 0.21484c-0.015625 0.003906-0.03125 0.003906-0.050781 0.007812l-1.3789 0.30078c-0.015625 0.003907-0.03125 0.007813-0.046875 0.011719l-1.082 0.30859 3.0781-6.7227 0.92188-0.43359 0.95703-0.38281 0.97656-0.31641 0.99609-0.26172 1.0117-0.19531 1.0195-0.13281 1.0273-0.070312zm-46.48-44.691c-0.09375 0-0.1875 0.015625-0.27734 0.050781-0.41797 0.15234-0.63281 0.61719-0.48047 1.0352 0.11719 0.3125 0.41406 0.52344 0.74609 0.52734l5.3398 0.074219 0.55078 0.73438 0.53906 0.83203 0.48438 0.86328 0.42578 0.89844 0.36719 0.91797 0.30469 0.94531 0.24219 0.96094 0.17578 0.97266 0.11328 0.98438 0.050781 0.99219-0.015625 0.98828v0.003906l-0.082031 0.98047-0.14453 0.97266-0.20703 0.96484-0.27344 0.94531-0.33203 0.92969-0.39063 0.90234-0.44922 0.875-0.50781 0.84766-0.5625 0.80859-0.60938 0.77344-0.65625 0.71875-6.0312 2.2891c-0.33203 0.125-0.55078 0.45703-0.51953 0.82422 0.023437 0.25 0.16406 0.47656 0.375 0.60938 0.13281 0.082031 0.28125 0.125 0.42969 0.125 0.097657 0 0.19141-0.015626 0.28516-0.050782l5.3438-2.0273 0.91016 0.35938 0.88281 0.41406 0.85156 0.46875 0.82031 0.51953 0.78906 0.57422 0.75 0.62109 0.70703 0.66406 0.66797 0.71094 0.61719 0.75 0.57031 0.78906 0.51953 0.82422 0.46875 0.85547 0.41016 0.87891 0.35547 0.90625 0.29688 0.92969 0.24219 0.94141 0.17578 0.95703 0.11719 0.96484 0.058594 0.97266-0.003906 0.97266-0.066406 0.97266-0.12891 0.96484-0.1875 0.95703-0.21484 0.80859-3.8008 3.5352c-0.21484 0.19922-0.3125 0.51172-0.22656 0.8125 0.078125 0.26953 0.29297 0.47656 0.5625 0.55469 0.070312 0.019531 0.14062 0.027344 0.21094 0.027344 0.20312 0 0.39844-0.074219 0.55078-0.21484l3.9766-3.6992 0.94922-0.050781 1.043 0.007812 1.043 0.066407v0.003906l1.0391 0.12891 1.0234 0.19531 1.0156 0.25391 0.99609 0.31641 0.97656 0.375 0.94922 0.43359 0.92578 0.48828 0.89062 0.54688 0.86328 0.59766 0.82422 0.65234 0.78125 0.69922 0.74219 0.74219 0.69141 0.78906 0.64453 0.82812 0.59375 0.86719 0.53906 0.89844 0.48438 0.93359 0.42578 0.95703 0.37891 1.0078c0.003906 0.011719 0.007812 0.023438 0.015625 0.035157l-0.003907 0.003906-2.5195 5.4961c-0.066406 0.14453-0.089843 0.3125-0.058593 0.48438 0.0625 0.34375 0.34375 0.60938 0.69141 0.65234 0.03125 0.003906 0.066406 0.003906 0.097656 0.003906 0.3125 0 0.60156-0.17969 0.73438-0.46875l2.6484-5.7852v0.003906l1.1055-0.39062 1.3125-0.37109 1.332-0.28906 1.3477-0.20703 1.3555-0.125v0.003907l1.3633-0.042969v0.003906l1.3594 0.042969 1.3555 0.13281 1.3477 0.21094v0.003906l1.3281 0.29297v0.003906l1.3086 0.375 1.2812 0.45703 1.25 0.53516 1.2148 0.61328 1.1719 0.6875 1.1328 0.75781 1.082 0.82812 1.0234 0.89062 0.97266 0.95312 0.92578 1.0273c0.082031 0.089844 0.17578 0.15625 0.27734 0.19922l-0.003907 0.003906 0.09375 2.9453c0.011719 0.4375 0.37109 0.78125 0.80469 0.78125h0.023438c0.44531-0.015624 0.79297-0.38672 0.78125-0.83203l-1.9766-63.113c-0.011719-0.42969-0.36328-0.77344-0.79297-0.78125l-58.281-0.82422-0.003906 0.003907c-0.011719-0.003907-0.023438-0.003907-0.035156-0.003907z"
     id="path1" />
</svg>
