<?xml version="1.0" encoding="UTF-8" standalone="no"?>
<svg
   version="1.1"
   x="0px"
   y="0px"
   viewBox="0 0 100 125"
   enable-background="new 0 0 100 100"
   xml:space="preserve"
   id="svg2"
   sodipodi:docname="noun-spiderweb-704550.svg"
   inkscape:version="1.3.2 (091e20e, 2023-11-25)"
   xmlns:inkscape="http://www.inkscape.org/namespaces/inkscape"
   xmlns:sodipodi="http://sodipodi.sourceforge.net/DTD/sodipodi-0.dtd"
   xmlns="http://www.w3.org/2000/svg"
   xmlns:svg="http://www.w3.org/2000/svg"><defs
     id="defs2" /><sodipodi:namedview
     id="namedview2"
     pagecolor="#ffffff"
     bordercolor="#000000"
     borderopacity="0.25"
     inkscape:showpageshadow="2"
     inkscape:pageopacity="0.0"
     inkscape:pagecheckerboard="0"
     inkscape:deskcolor="#d1d1d1"
     inkscape:zoom="1.888"
     inkscape:cx="50.052966"
     inkscape:cy="62.5"
     inkscape:window-width="1312"
     inkscape:window-height="449"
     inkscape:window-x="37"
     inkscape:window-y="38"
     inkscape:window-maximized="0"
     inkscape:current-layer="svg2" /><path
     d="M68.613,23.714H31.404c-0.002,0-0.002,0.001-0.002,0.001h-0.015l0,0l0,0c-0.006,0-0.012,0.002-0.017,0.003  c-0.014,0-0.026,0.002-0.041,0.005c-0.014,0.003-0.026,0.006-0.041,0.011c-0.012,0.004-0.024,0.01-0.036,0.016  c-0.005,0.002-0.011,0.002-0.017,0.006c-0.006,0.003-0.009,0.008-0.014,0.012c-0.011,0.007-0.021,0.016-0.031,0.025  c-0.012,0.009-0.021,0.019-0.031,0.029c-0.004,0.004-0.01,0.008-0.015,0.012c-0.004,0.006-0.006,0.013-0.008,0.019  c-0.004,0.006-0.009,0.009-0.013,0.015s-0.004,0.012-0.006,0.017c-0.008,0.012-0.012,0.024-0.017,0.037  c-0.004,0.013-0.007,0.026-0.009,0.041c-0.003,0.013-0.005,0.024-0.006,0.038c-0.001,0.006-0.003,0.012-0.003,0.019v37.208  c0,0.168,0.136,0.303,0.301,0.303c0.167,0,0.301-0.135,0.301-0.303v-2.172c3.431-5.909,11.013-7.948,16.944-4.566l1.1,1.904  c0.055,0.096,0.155,0.15,0.26,0.15c0,0,0,0,0.002,0l0,0c0.051,0,0.103-0.014,0.148-0.041c0.145-0.082,0.193-0.269,0.11-0.411  l-1.085-1.882c0.015-6.754,5.434-12.258,12.152-12.42v27.463c-0.338,0.144-0.578,0.507-0.578,0.939c0,0.271,0.095,0.516,0.25,0.696  c-0.891-0.271-1.539-1.101-1.539-2.074c0-0.834,0.488-1.604,1.242-1.961c0.148-0.069,0.213-0.253,0.143-0.401  c-0.071-0.148-0.25-0.215-0.401-0.144c-0.963,0.456-1.585,1.438-1.585,2.506c0,0.347,0.067,0.679,0.182,0.982  c-0.522-0.604-0.84-1.388-0.84-2.246c0-0.166-0.137-0.304-0.305-0.304c-0.166,0-0.301,0.138-0.301,0.304  c0,1.687,1.039,3.131,2.51,3.731c-1.471,0.605-2.51,2.051-2.51,3.735c0,0.165,0.135,0.301,0.301,0.301  c0.168,0,0.305-0.136,0.305-0.301c0-0.858,0.317-1.644,0.84-2.246c-0.115,0.306-0.182,0.638-0.182,0.981  c0,1.065,0.622,2.051,1.585,2.506c0.042,0.021,0.086,0.029,0.128,0.029c0.114,0,0.223-0.063,0.272-0.172  c0.071-0.149,0.007-0.332-0.144-0.402c-0.754-0.356-1.24-1.126-1.24-1.961c0-0.956,0.623-1.77,1.484-2.055  c-0.375,0.293-0.627,0.82-0.627,1.428c0,0.926,0.587,1.678,1.313,1.678c0.723,0,1.311-0.752,1.311-1.678  c0-0.605-0.252-1.135-0.626-1.428c0.86,0.285,1.483,1.099,1.483,2.055c0,0.835-0.485,1.604-1.239,1.961  c-0.151,0.07-0.215,0.253-0.144,0.402c0.051,0.108,0.16,0.172,0.271,0.172c0.043,0,0.087-0.011,0.128-0.029  c0.963-0.455,1.586-1.438,1.586-2.506c0-0.346-0.067-0.676-0.185-0.981c0.525,0.603,0.845,1.388,0.845,2.246  c0,0.165,0.136,0.301,0.301,0.301c0.168,0,0.302-0.136,0.302-0.301c0-1.687-1.039-3.131-2.509-3.733  c1.47-0.603,2.509-2.049,2.509-3.731c0-0.166-0.134-0.304-0.302-0.304c-0.166,0-0.301,0.138-0.301,0.304  c0,0.858-0.319,1.646-0.845,2.246c0.117-0.308,0.185-0.638,0.185-0.982c0-1.065-0.623-2.05-1.586-2.506  c-0.149-0.071-0.33-0.007-0.401,0.144c-0.07,0.149-0.006,0.332,0.145,0.401c0.754,0.354,1.24,1.127,1.24,1.961  c0,0.978-0.649,1.804-1.537,2.074c0.154-0.183,0.249-0.426,0.249-0.696c0-0.435-0.241-0.798-0.578-0.939v-27.26l1.537,0.888  c0.048,0.028,0.099,0.041,0.151,0.041c0.104,0,0.205-0.054,0.26-0.151c0.021-0.035,0.035-0.074,0.039-0.113  c0.015-0.117-0.041-0.236-0.148-0.3l-1.88-1.086c-3.403-5.925-1.378-13.51,4.519-16.954h2.197c0,0,0.001,0,0.002,0h0.014  c0.168,0,0.301-0.136,0.301-0.302C68.914,23.849,68.779,23.714,68.613,23.714z M31.689,25.142l6.441,11.155  c-2.29-0.903-4.92-0.192-6.441,1.743V25.142z M32.213,24.841l11.154,6.439c-2.434,0.361-4.356,2.293-4.705,4.73L32.213,24.841z   M32.514,24.317h12.881c-1.926,1.53-2.627,4.163-1.71,6.449L32.514,24.317z M31.689,39.079c0.027-0.021,0.053-0.047,0.07-0.08  c1.376-2.383,4.434-3.201,6.814-1.826c0.024,0.014,0.049,0.019,0.076,0.025l4.479,7.756c-4.044-1.873-8.885-0.566-11.439,3.086  V39.079z M39.181,36.909c0.011-0.033,0.021-0.067,0.021-0.104c0-2.75,2.238-4.988,4.99-4.988c0.027,0,0.053-0.009,0.077-0.016  l7.755,4.478c-2.15,0.192-4.147,1.121-5.693,2.666c-1.553,1.555-2.483,3.563-2.668,5.727L39.181,36.909z M44.584,31.286  c-0.006-0.035-0.016-0.069-0.034-0.102c-1.375-2.382-0.558-5.439,1.826-6.814c0.024-0.014,0.04-0.033,0.059-0.051h8.957  c-3.642,2.564-4.933,7.409-3.046,11.448L44.584,31.286z M31.689,57.929v-8.813c0.034-0.024,0.066-0.055,0.088-0.094  c2.381-4.123,7.67-5.541,11.795-3.16c0.033,0.019,0.064,0.027,0.1,0.032l4.4,7.622C42.287,50.76,35.307,52.639,31.689,57.929z   M48.605,53.233l-4.406-7.631c0.018-0.039,0.029-0.08,0.029-0.125c-0.001-2.307,0.897-4.475,2.529-6.105  c1.631-1.631,3.799-2.528,6.105-2.528c0.037,0,0.069-0.009,0.103-0.021l7.622,4.399C54.199,41.726,49.094,46.843,48.605,53.233z   M60.908,40.711l-7.631-4.406c-0.006-0.042-0.017-0.083-0.037-0.123c-2.383-4.124-0.963-9.415,3.158-11.795  c0.032-0.019,0.059-0.042,0.08-0.069h8.801C59.998,27.948,58.136,34.932,60.908,40.711z"
     id="path1" /></svg>
