<?xml version="1.0" encoding="UTF-8" standalone="no"?>
<svg
   version="1.1"
   viewBox="-5.0 -10.0 110.0 135.0"
   id="svg5"
   sodipodi:docname="noun-ghost-8132793.svg"
   inkscape:version="1.3.2 (091e20e, 2023-11-25)"
   xmlns:inkscape="http://www.inkscape.org/namespaces/inkscape"
   xmlns:sodipodi="http://sodipodi.sourceforge.net/DTD/sodipodi-0.dtd"
   xmlns="http://www.w3.org/2000/svg"
   xmlns:svg="http://www.w3.org/2000/svg">
  <defs
     id="defs5" />
  <sodipodi:namedview
     id="namedview5"
     pagecolor="#ffffff"
     bordercolor="#000000"
     borderopacity="0.25"
     inkscape:showpageshadow="2"
     inkscape:pageopacity="0.0"
     inkscape:pagecheckerboard="0"
     inkscape:deskcolor="#d1d1d1"
     inkscape:zoom="1.7481481"
     inkscape:cx="55.201271"
     inkscape:cy="67.5"
     inkscape:window-width="1312"
     inkscape:window-height="449"
     inkscape:window-x="37"
     inkscape:window-y="38"
     inkscape:window-maximized="0"
     inkscape:current-layer="svg5" />
  <path
     d="m45.16 40.871c0.33984-0.44922 0.53125-0.85938 0.69922-1.2891 0.23828-0.64062 0.39844-1.3086 0.51172-2.0391 0.10938-0.73047 0.17188-1.5117 0.17188-2.3398 0-1.4414-0.16016-2.7383-0.5-3.8789-0.17969-0.57031-0.39062-1.1094-0.78906-1.6914-0.21094-0.28906-0.46875-0.58984-0.89062-0.87891-0.41016-0.28125-1.0117-0.51953-1.6719-0.51953s-1.2695 0.23828-1.6719 0.51953c-0.35938 0.25-0.60938 0.51172-0.80859 0.76953-0.33984 0.44922-0.53125 0.85937-0.69922 1.2891-0.23828 0.64062-0.39844 1.3086-0.51172 2.0391-0.10938 0.73047-0.17188 1.5117-0.17188 2.3398 0 1.4414 0.16016 2.7383 0.5 3.8789 0.17969 0.57031 0.39062 1.1094 0.78906 1.6914 0.21094 0.28906 0.46875 0.58984 0.89062 0.87891 0.41016 0.28125 1.0117 0.51953 1.6719 0.51953 0.66016 0 1.2695-0.23828 1.6719-0.51953 0.35938-0.25 0.60938-0.51172 0.80859-0.76953z"
     id="path1" />
  <path
     d="m62.238 29.809c-0.21094-0.28906-0.46875-0.58984-0.89062-0.87891-0.41016-0.28125-1.0117-0.51953-1.6719-0.51953-0.66016 0-1.2695 0.23828-1.6719 0.51953-0.35938 0.25-0.60938 0.51172-0.80859 0.76953-0.33984 0.44922-0.53125 0.85938-0.69922 1.2891-0.23828 0.64062-0.39844 1.3086-0.51172 2.0391-0.10938 0.73047-0.17188 1.5117-0.17188 2.3398 0 1.4414 0.16016 2.7383 0.5 3.8789 0.17969 0.57031 0.39062 1.1094 0.78906 1.6914 0.21094 0.28906 0.46875 0.58984 0.89063 0.87891 0.41016 0.28125 1.0117 0.51953 1.6719 0.51953 0.66016 0 1.2695-0.23828 1.6719-0.51953 0.35937-0.25 0.60937-0.51172 0.80859-0.76953 0.33984-0.44922 0.53125-0.85938 0.69922-1.2891 0.23828-0.64062 0.39844-1.3086 0.51172-2.0391 0.10938-0.73047 0.17188-1.5117 0.17188-2.3398 0-1.4414-0.16016-2.7383-0.5-3.8789-0.17969-0.57031-0.39062-1.1094-0.78906-1.6914z"
     id="path2" />
  <path
     d="m57.02 48.301c-0.35156-0.26172-0.60156-0.35938-0.82812-0.46094-0.39062-0.14844-0.73047-0.23047-1.0898-0.30078-0.53906-0.10156-1.1406-0.17187-1.8086-0.23047-0.67188-0.050782-1.3984-0.078125-2.1719-0.078125-1.3398 0-2.5391 0.078125-3.5312 0.23047-0.5 0.078124-0.92969 0.16016-1.4219 0.32812-0.25 0.10156-0.51953 0.19141-0.89844 0.46875-0.19141 0.14063-0.42188 0.33984-0.66016 0.67969-0.23047 0.32812-0.44922 0.87109-0.44922 1.4609 0 0.58984 0.21875 1.1289 0.44922 1.4609 0.21875 0.32031 0.44141 0.51953 0.62109 0.66016 0.35156 0.26172 0.60156 0.35938 0.82812 0.46094 0.39062 0.14844 0.73047 0.23047 1.0898 0.30078 0.53906 0.10156 1.1406 0.17188 1.8086 0.23047 0.67188 0.050781 1.3984 0.078125 2.1719 0.078125 1.3398 0 2.5391-0.078125 3.5312-0.23047 0.5-0.078125 0.92969-0.16016 1.4219-0.32812 0.25-0.10156 0.51953-0.19141 0.89844-0.46875 0.19141-0.14062 0.42188-0.33984 0.66016-0.67969 0.23047-0.32812 0.44922-0.87109 0.44922-1.4609s-0.21875-1.1289-0.44922-1.4609c-0.21875-0.32031-0.44141-0.51953-0.62109-0.66016z"
     id="path3" />
  <path
     d="m86.73 79.441c-0.67188-1.9805-1.6016-3.9688-2.4609-6.3086-0.87109-2.3398-1.6797-5.0195-2.1406-8.3281-0.12891-0.91016-0.25-2.4805-0.48828-5.6211-0.23828-3.1914-0.39062-5.9414-0.48047-8.0312s-0.12109-3.5117-0.14062-4.1016c-0.14844-4.6289-0.30859-10.039-1.3984-15.449-1.0898-5.4102-3.1406-10.879-7.1484-15.43-0.5-0.57031-2.6797-2.9609-6.2695-5.2617-3.5781-2.2891-8.6406-4.5-14.809-4.5-0.39844 0-0.80859 0-1.2188 0.03125-6.1094 0.28906-11 2.6914-14.449 5.1406-1.7305 1.2305-3.1211 2.4805-4.1484 3.5195-1.0312 1.0391-1.7188 1.8711-2.0117 2.25-4.0117 5.0195-5.9414 11.02-6.9219 16.57s-1 10.73-1.0195 14.172c0 0.78906 0 2.3398-0.12891 4.5391-0.14062 2.1992-0.42969 5.0195-1.0312 8.2188-0.14844 0.82031-0.42969 2.2812-0.89844 4.0703-1.1914 4.5703-2.7617 8.1016-4.1211 11.18-0.67969 1.5391-1.3008 2.9688-1.7812 4.3906-0.46875 1.4219-0.80859 2.8516-0.82031 4.3711 0 0.98047 0.14844 1.9883 0.48828 2.9688 0.039063 0.10938 0.10938 0.32812 0.21875 0.58984 0.32031 0.78125 0.96094 2.0312 2.2695 3.0781 0.87891 0.69922 1.8398 1.1211 2.7383 1.3594 0.89844 0.23828 1.7383 0.30859 2.4609 0.30859 1 0 1.8203-0.14062 2.1797-0.19922 2.0586-0.33984 3.7812-1.1797 5.1484-2.1797 2.0508-1.5 3.3984-3.3008 4.4883-4.5 0.53125-0.60156 0.98828-1.0391 1.3008-1.25 0.16016-0.10937 0.26953-0.16016 0.33984-0.19141l0.14844-0.03125h0.050781l0.058594 0.011719 0.12109 0.10156c0.14062 0.12891 0.39062 0.46094 0.71875 0.94922 0.5 0.73047 1.1719 1.8008 2.2109 2.9102 1.0391 1.1094 2.4492 2.2305 4.3594 3.1289 1.7188 0.80859 3.3516 1.2305 4.6602 1.4414 1.3008 0.21875 2.3008 0.23828 2.7305 0.23828h0.050782c0.71094 0 2.75-0.050781 5.1992-0.83984 1.9688-0.62891 3.5508-1.5508 4.8008-2.5391 1.8789-1.4805 3.0508-3.0898 3.9297-4.0508 0.42969-0.48828 0.78125-0.80078 0.98828-0.92969 0.23047-0.12891 0.26953-0.14844 0.48047-0.16016h0.011719c0.12891 0 0.17969 0.019531 0.26953 0.050781 0.078125 0.03125 0.17969 0.089844 0.33984 0.21094 0.26953 0.21094 0.66016 0.62109 1.1289 1.1797 0.71094 0.82812 1.6211 1.9688 2.9297 3.0586 1.3008 1.0898 3.0391 2.0898 5.25 2.6289 0.60938 0.14844 1.8203 0.44922 3.3086 0.44922 1.3711 0 3.0391-0.26172 4.6602-1.1914 1.2305-0.69922 2.0898-1.6016 2.6797-2.3789 0.30078-0.39063 0.53125-0.75 0.69922-1.0586 0.17188-0.30078 0.30078-0.55078 0.35938-0.67969 0.60938-1.2188 0.89062-2.5312 0.89062-3.7812 0-1.4609-0.33984-2.8086-0.78906-4.1289zm-4.582 5.6875c-0.050782 0.10938-0.10938 0.23047-0.21094 0.39062-0.26953 0.46875-0.78906 1.1797-1.5508 1.6016-0.66016 0.37891-1.4102 0.51953-2.1719 0.51953-0.82812 0-1.6016-0.17188-2.1094-0.30078-1.2617-0.32031-2.1484-0.78906-2.9219-1.3711-1.1602-0.85938-2.0117-2-3.0781-3.2188-0.53906-0.60156-1.1484-1.2383-1.9883-1.7812-0.82813-0.53906-1.9492-0.92969-3.1211-0.92188h-0.10156c-0.76953 0.011719-1.5312 0.17969-2.1914 0.46875-0.57812 0.25-1.0781 0.57031-1.5117 0.91016-0.75 0.60156-1.3203 1.25-1.8594 1.8789-0.80859 0.94922-1.5508 1.8594-2.4805 2.6484-0.92969 0.80078-2.0195 1.5-3.6211 2.0195-1.7383 0.55859-3.2305 0.60156-3.6914 0.60156h-0.039062c-0.26172 0-0.94922-0.011719-1.9102-0.17188-0.94922-0.16016-2.1406-0.46094-3.3516-1.0312-1.1602-0.55078-1.9492-1.1484-2.5781-1.7617-0.94141-0.92188-1.5117-1.8984-2.2891-3.0117-0.39062-0.55078-0.85156-1.1602-1.5586-1.7109-0.69141-0.55859-1.6719-0.98828-2.6914-1.0781-0.17969-0.019532-0.35938-0.03125-0.53906-0.03125-0.87109 0-1.6914 0.21875-2.3789 0.55078-1.2188 0.58984-2.0508 1.4219-2.8203 2.2383-1.1289 1.2305-2.1094 2.5-3.2109 3.4883-0.55078 0.48828-1.1211 0.91016-1.7383 1.2383-0.62109 0.32812-1.2891 0.57031-2.0898 0.69922-0.32031 0.050781-0.80078 0.12891-1.3594 0.12891-0.39844 0-0.80859-0.039063-1.1719-0.14062-0.35938-0.10156-0.66016-0.23828-0.91016-0.44141-0.25-0.19922-0.44141-0.44922-0.58984-0.71094-0.070312-0.12891-0.12891-0.25-0.17969-0.35938-0.050781-0.10938-0.078124-0.19922-0.10937-0.30859-0.14844-0.44141-0.21875-0.85938-0.21875-1.3516 0-0.73828 0.17969-1.6484 0.55859-2.7812 0.55859-1.6914 1.5586-3.8086 2.6797-6.4219 1.1211-2.6094 2.3398-5.7305 3.3086-9.4805 0.51172-1.9609 0.80859-3.5586 0.96875-4.4102 0.64844-3.4492 0.96094-6.4688 1.1016-8.8281 0.14844-2.3594 0.14062-4.0898 0.14062-4.8281 0.019531-3.4102 0.050781-8.2812 0.94922-13.328 0.89062-5.0508 2.6289-10.23 5.9102-14.32 0.23047-0.28906 0.78125-0.96875 1.6484-1.8398 1.3008-1.3086 3.3008-3.0391 5.8789-4.4688 2.5898-1.4297 5.7305-2.5508 9.4102-2.7188l-0.12109-2.5 0.12109 2.5c0.32812-0.019531 0.66016-0.019531 0.98047-0.019531 4.9414 0 9.0781 1.7812 12.121 3.7188 3.0312 1.9297 4.8984 3.9883 5.2109 4.3516 3.2383 3.6797 5.0117 8.2383 6 13.121 0.98828 4.8711 1.1602 10 1.3086 14.621 0.019531 0.55078 0.050781 2.0312 0.14844 4.1602 0.089844 2.1289 0.23828 4.9297 0.48828 8.1914 0.23828 3.1484 0.35156 4.7188 0.51953 5.9297 0.69141 5 2.1406 8.8086 3.3398 11.762 0.60156 1.4688 1.1289 2.7383 1.4883 3.7891 0.35938 1.0586 0.53125 1.8906 0.51953 2.5391 0 0.55859-0.10156 1-0.37109 1.5586z"
     id="path4" />
</svg>
